<svg version="1.1" id="Capa_1" xmlns="http://www.w3.org/2000/svg" x="0" y="0" viewBox="0 0 18 18" style="enable-background:new 0 0 18 18" xml:space="preserve"><style></style><path d="M9.3 13.7c-1.6 1.4-2.9 2.2-4 2.2-.7 0-1.4-.4-2.2-1-.8-1-1.2-1.8-1-2.9.2-.6 1-1.7 2.3-3.2.1 1.2.7 2.2 1.6 3.1 1 1 2 1.4 3.2 1.7.1 0 .1 0 .1.1zm-.9-7.1c.7 0 1.4.4 2 1 1 .8 1.2 1.8 1 2.8 0 .4-.2.7-.4 1.1-.1 0-.4.1-.5.1h-.9c-.7 0-1.4-.4-2.2-1-.2-.2-.4-.5-.6-.7 0-.3-.1-.5-.2-.8-.1-.3-.1-.7 0-1.1 0-.4.1-.8.4-1.2.3-.2.8-.2 1.4-.2zm3.5-.4c-.7-.8-1.6-1.3-2.5-1.6h-.9l.2-.2c1.4-1.4 2.8-2.2 4-2.2.7 0 1.4.2 2 1 .3.3.5.5.6.8s.2.6.4 1c0 .4 0 .7-.1 1.2s-.4 1-.7 1.4c-.4.6-.8 1.2-1.4 1.8-.2-1.1-.7-2.2-1.6-3.2zm3.1 4.5c1.4-1.4 2.3-2.9 2.6-4.2.5-1.7-.1-3.2-1.4-4.6C15.1.8 13.9.2 12.7.2c-1.7 0-3.5 1-5.4 2.9-.8.9-1.6 1.7-2 2.7-.3.1-.6.3-1.1.7-.5.3-.9.6-1.2.9C1.6 8.8.7 10.2.4 11.5c-.2 1.1-.1 2 .4 3 .2.6.6 1.2 1.1 1.7 1.1 1.1 2.3 1.6 3.6 1.6 1 0 1.9-.2 2.9-.8.8-.5 1.6-1.1 2.4-1.9.8-.8 1.6-1.8 2-2.6.7-.5 1.5-1.1 2.2-1.8z" style="fill:#2d4254"/></svg>