<svg width="35" height="35" viewBox="0 0 35 35" fill="none" xmlns="http://www.w3.org/2000/svg">
<path id="Vector" d="M13.9187 33.2343L13.8903 33.2556L13.8772 33.2687L13.5577 33.5068L13.5568 33.5074L12.3879 34.3825L12.3875 34.3828C12.2121 34.5143 11.9692 34.5394 11.7594 34.4365C11.5607 34.3389 11.4375 34.1409 11.4375 33.9077V32.4516V32.0141V31.9936V31.7201V28.4387V27.9387H10.9375H7.65625H4.375C2.23808 27.9387 0.5 26.2006 0.5 24.0635V4.37519C0.5 2.23812 2.23808 0.5 4.375 0.5H30.625C32.7619 0.5 34.5 2.23812 34.5 4.37519V24.0635C34.5 26.2006 32.7619 27.9387 30.625 27.9387H21.1436H20.9768L20.8435 28.0388L13.9187 33.2343Z" fill="white" stroke="#555555"/>
</svg>
