<svg xmlns="http://www.w3.org/2000/svg" width="17" height="12" viewBox="0 0 17 12" fill="none">
  <path d="M1.53409 0C0.687145 0 0 0.671875 0 1.5C0 1.97187 0.226918 2.41562 0.613636 2.7L7.56818 7.8C7.93253 8.06563 8.43111 8.06563 8.79545 7.8L15.75 2.7C16.1367 2.41562 16.3636 1.97187 16.3636 1.5C16.3636 0.671875 15.6765 0 14.8295 0H1.53409ZM0 3.5V10C0 11.1031 0.917259 12 2.04545 12H14.3182C15.4464 12 16.3636 11.1031 16.3636 10V3.5L9.40909 8.6C8.6804 9.13438 7.68324 9.13438 6.95455 8.6L0 3.5Z" fill="#555555"/>
</svg>