<svg width="24" height="30" viewBox="0 0 24 30" fill="none" xmlns="http://www.w3.org/2000/svg">
<path d="M13.0599 2.08658L14.6336 0.489938C13.9898 -0.163313 12.9457 -0.163313 12.3019 0.489938L11.063 1.74678L9.8971 2.9297L11.063 4.11262L12.3019 5.36946C12.9457 6.02271 13.9898 6.02271 14.6336 5.36946L13.0616 3.77449C18.038 4.29172 21.9702 8.38593 22.319 13.4816C22.7534 19.8296 17.543 25.1253 11.2853 24.6958C6.07269 24.338 1.91891 20.0645 1.65778 14.7509C1.65613 14.7169 1.62851 14.6901 1.59491 14.6901H0.0631282C0.0272656 14.6901 -0.00148626 14.7204 5.95412e-05 14.7567C0.284384 21.4036 5.81928 26.6688 12.5019 26.3894C18.7265 26.1292 23.7305 21.0545 23.9893 14.7393C24.2598 8.14337 19.3575 2.64855 13.0599 2.08658Z" fill="#555555"/>
<path d="M6.001 18V16.823H8.113V11.367H8.014L6.342 13.347L5.44 12.588L7.343 10.322H9.532V16.823H11.292V18H6.001ZM14.7857 18.132C14.2944 18.132 13.869 18.044 13.5097 17.868C13.1504 17.6847 12.8534 17.4243 12.6187 17.087C12.384 16.7497 12.208 16.3353 12.0907 15.844C11.9807 15.3527 11.9257 14.7917 11.9257 14.161C11.9257 13.5377 11.9807 12.9803 12.0907 12.489C12.208 11.9903 12.384 11.5723 12.6187 11.235C12.8534 10.8977 13.1504 10.641 13.5097 10.465C13.869 10.2817 14.2944 10.19 14.7857 10.19C15.761 10.19 16.4797 10.5383 16.9417 11.235C17.411 11.9317 17.6457 12.907 17.6457 14.161C17.6457 15.415 17.411 16.3903 16.9417 17.087C16.4797 17.7837 15.761 18.132 14.7857 18.132ZM14.7857 16.911C15.277 16.911 15.618 16.7277 15.8087 16.361C16.0067 15.987 16.1057 15.4847 16.1057 14.854V13.468C16.1057 12.8373 16.0067 12.3387 15.8087 11.972C15.618 11.598 15.277 11.411 14.7857 11.411C14.2944 11.411 13.9497 11.598 13.7517 11.972C13.561 12.3387 13.4657 12.8373 13.4657 13.468V14.854C13.4657 15.4847 13.561 15.987 13.7517 16.361C13.9497 16.7277 14.2944 16.911 14.7857 16.911Z" fill="#555555"/>
</svg>
