<svg width="35" height="35" viewBox="0 0 35 35" fill="none" xmlns="http://www.w3.org/2000/svg">
<circle cx="17.5" cy="17.5" r="17" stroke="#555555"/>
<path d="M17.5 9.28125C12.7873 9.28125 8.96875 13.0998 8.96875 17.8125V22.0781C8.96875 22.6236 8.52988 23.0625 7.98438 23.0625C7.43887 23.0625 7 22.6236 7 22.0781V17.8125C7 12.0129 11.7004 7.3125 17.5 7.3125C23.2996 7.3125 28 12.0129 28 17.8125V22.0781C28 22.6236 27.5611 23.0625 27.0156 23.0625C26.4701 23.0625 26.0312 22.6236 26.0312 22.0781V17.8125C26.0312 13.0998 22.2127 9.28125 17.5 9.28125ZM10.2812 20.4375C10.2812 18.9896 11.4584 17.8125 12.9062 17.8125H13.5625C14.2885 17.8125 14.875 18.399 14.875 19.125V24.375C14.875 25.101 14.2885 25.6875 13.5625 25.6875H12.9062C11.4584 25.6875 10.2812 24.5104 10.2812 23.0625V20.4375ZM22.0938 17.8125C23.5416 17.8125 24.7188 18.9896 24.7188 20.4375V23.0625C24.7188 24.5104 23.5416 25.6875 22.0938 25.6875H21.4375C20.7115 25.6875 20.125 25.101 20.125 24.375V19.125C20.125 18.399 20.7115 17.8125 21.4375 17.8125H22.0938Z" fill="#555555"/>
</svg>