<svg width="35" height="35" viewBox="0 0 35 35" fill="none" xmlns="http://www.w3.org/2000/svg">
<g id="Group 2296">
<circle id="Ellipse 71" cx="17.5" cy="17.5" r="17" stroke="#555555"/>
<path id="Vector" d="M11 10.5939C11 9.71394 11.7139 9 12.5939 9V10.5939V23.6573L16.914 20.5724C17.1897 20.3732 17.5649 20.3732 17.8405 20.5724L22.1573 23.6573V10.5939H12.5939V9H22.1573C23.0373 9 23.7512 9.71394 23.7512 10.5939V25.2047C23.7512 25.5036 23.5852 25.7758 23.3196 25.912C23.0539 26.0481 22.7351 26.0249 22.4927 25.8522L17.3756 22.1995L12.2585 25.8522C12.0161 26.0249 11.6973 26.0481 11.4317 25.912C11.166 25.7758 11 25.5036 11 25.2047V10.5939Z" fill="#555555"/>
</g>
</svg>
