<svg width="35" height="35" viewBox="0 0 35 35" fill="none" xmlns="http://www.w3.org/2000/svg">
<g id="Group 2295">
<circle id="Ellipse 69" cx="17.5" cy="17.5" r="17" stroke="#555555"/>
<path id="Vector" d="M19.5938 10.0881C19.2344 10.2475 19 10.6069 19 11.0006V13.0006H15.5C12.4625 13.0006 10 15.4631 10 18.5006C10 22.0413 12.5469 23.6225 13.1312 23.9413C13.2094 23.985 13.2969 24.0006 13.3844 24.0006C13.725 24.0006 14 23.7225 14 23.385C14 23.1506 13.8656 22.935 13.6937 22.7756C13.4 22.4975 13 21.9506 13 21.0006C13 19.3444 14.3438 18.0006 16 18.0006H19V20.0006C19 20.3944 19.2312 20.7538 19.5938 20.9131C19.9563 21.0725 20.375 21.0069 20.6687 20.7444L25.6687 16.2444C25.8781 16.0538 26 15.785 26 15.5006C26 15.2163 25.8812 14.9475 25.6687 14.7569L20.6687 10.2569C20.375 9.99125 19.9531 9.92563 19.5938 10.0881Z" fill="#555555"/>
</g>
</svg>
