<svg width="35" height="35" viewBox="0 0 35 35" fill="none" xmlns="http://www.w3.org/2000/svg">
<g id="Group 2288">
<circle id="Ellipse 69" cx="17.5" cy="17.5" r="17.5" fill="#555555"/>
<path id="Vector" d="M23.6153 13.2201C24.1228 12.7126 24.1228 11.8883 23.6153 11.3807C23.1077 10.8731 22.2834 10.8731 21.7758 11.3807L17.5 15.6605L13.2201 11.3847C12.7126 10.8772 11.8883 10.8772 11.3807 11.3847C10.8731 11.8923 10.8731 12.7166 11.3807 13.2242L15.6605 17.5L11.3847 21.7799C10.8772 22.2874 10.8772 23.1117 11.3847 23.6193C11.8923 24.1269 12.7166 24.1269 13.2242 23.6193L17.5 19.3394L21.7799 23.6153C22.2874 24.1228 23.1117 24.1228 23.6193 23.6153C24.1269 23.1077 24.1269 22.2834 23.6193 21.7758L19.3394 17.5L23.6153 13.2201Z" fill="white"/>
</g>
</svg>
