<svg width="35" height="35" viewBox="0 0 35 35" fill="none" xmlns="http://www.w3.org/2000/svg">
<g id="Group 2298">
<circle id="Ellipse 73" cx="17.5" cy="17.5" r="17" stroke="#555555"/>
<path id="Vector" d="M13.1667 23.7083C12.8687 23.7083 12.625 23.4646 12.625 23.1667V10.1667C12.625 9.86875 12.8687 9.625 13.1667 9.625H18.5833V12.3333C18.5833 12.9326 19.0674 13.4167 19.6667 13.4167H22.375V23.1667C22.375 23.4646 22.1312 23.7083 21.8333 23.7083H13.1667ZM13.1667 8C11.9716 8 11 8.97161 11 10.1667V23.1667C11 24.3617 11.9716 25.3333 13.1667 25.3333H21.8333C23.0284 25.3333 24 24.3617 24 23.1667V13.2305C24 12.6549 23.7732 12.1031 23.3669 11.6969L20.2997 8.63307C19.8935 8.22682 19.3451 8 18.7695 8H13.1667ZM15.0625 16.6667C14.6122 16.6667 14.25 17.0289 14.25 17.4792C14.25 17.9294 14.6122 18.2917 15.0625 18.2917H19.9375C20.3878 18.2917 20.75 17.9294 20.75 17.4792C20.75 17.0289 20.3878 16.6667 19.9375 16.6667H15.0625ZM15.0625 19.9167C14.6122 19.9167 14.25 20.2789 14.25 20.7292C14.25 21.1794 14.6122 21.5417 15.0625 21.5417H19.9375C20.3878 21.5417 20.75 21.1794 20.75 20.7292C20.75 20.2789 20.3878 19.9167 19.9375 19.9167H15.0625Z" fill="#555555"/>
</g>
</svg>
