<svg xmlns="http://www.w3.org/2000/svg" width="20" height="20" viewBox="0 0 20 20" fill="none">
  <path d="M10 0C4.47581 0 0 4.47581 0 10C0 15.5242 4.47581 20 10 20C15.5242 20 20 15.5242 20 10C20 4.47581 15.5242 0 10 0ZM14.6371 6.80242C14.4879 8.38306 13.8347 12.2218 13.504 13.9919C13.3629 14.7419 13.0887 14.9919 12.8226 15.0161C12.2419 15.0685 11.8024 14.6331 11.2379 14.2621C10.3589 13.6855 9.85887 13.3266 9.00806 12.7621C8.02016 12.1129 8.66129 11.754 9.22177 11.1694C9.37097 11.0161 11.9274 8.68952 11.9758 8.47984C11.9839 8.45161 11.9879 8.35484 11.9274 8.30242C11.8669 8.25 11.7823 8.27016 11.7218 8.28226C11.6331 8.30107 10.2272 9.22984 7.50403 11.0685C7.10618 11.3427 6.74462 11.4758 6.41935 11.4677C6.06048 11.4597 5.375 11.2661 4.8629 11.1008C4.2379 10.8992 3.7379 10.7903 3.78226 10.4435C3.80376 10.2634 4.05242 10.0793 4.52823 9.89113C7.4422 8.62231 9.38575 7.78495 10.3589 7.37903C13.1371 6.22581 13.7137 6.02419 14.0887 6.01613C14.1734 6.01613 14.3548 6.03629 14.4758 6.13306C14.5548 6.20247 14.6051 6.29877 14.6169 6.40323C14.6387 6.5351 14.6455 6.66902 14.6371 6.80242Z" fill="#555555"/>
</svg>