<svg xmlns="http://www.w3.org/2000/svg" width="17" height="19" viewBox="0 0 17 19" fill="none">
  <path d="M12.4662 8.69465C12.5532 8.73026 12.6324 8.76984 12.7155 8.80546C13.8711 9.36347 14.718 10.1985 15.1612 11.2354C15.7825 12.6799 15.8419 15.0267 13.9621 16.9025C12.5295 18.3351 10.7842 18.9802 8.31868 19H8.30681C5.52864 18.9802 3.39554 18.0462 1.95897 16.2218C0.680692 14.5992 0.0237451 12.3395 0 9.50989V9.49802V9.49011C0.0197875 6.66049 0.676734 4.40075 1.95501 2.77817C3.39159 0.95376 5.52864 0.0197875 8.30681 0H8.31868C11.1008 0.0197875 13.2616 0.949802 14.7417 2.7663C15.4699 3.66465 16.0081 4.74505 16.3485 5.99958L14.7496 6.42699C14.4687 5.40596 14.0452 4.53531 13.4753 3.83878C12.3197 2.422 10.5863 1.69381 8.31077 1.67798C6.05499 1.69777 4.3493 2.422 3.23724 3.83087C2.20038 5.14872 1.66215 7.05624 1.64237 9.49802C1.66215 11.9398 2.20038 13.8473 3.23724 15.1691C4.34535 16.578 6.05499 17.3022 8.31077 17.322C10.3449 17.3062 11.6905 16.8234 12.8105 15.7034C14.0887 14.4291 14.065 12.8619 13.6574 11.9081C13.416 11.3462 12.9806 10.8792 12.3949 10.527C12.2485 11.5915 11.9279 12.4384 11.4174 13.0914C10.7407 13.9542 9.779 14.4212 8.5403 14.4884C7.60633 14.5399 6.70798 14.3143 6.01146 13.8552C5.18829 13.3091 4.70548 12.478 4.65403 11.5084C4.55509 9.59696 6.06686 8.2237 8.42158 8.08915C9.25661 8.04166 10.0402 8.07728 10.7644 8.19996C10.6694 7.61425 10.4755 7.14726 10.1866 6.80692C9.79088 6.34389 9.17351 6.10644 8.35826 6.10248H8.33056C7.67361 6.10248 6.78713 6.28452 6.2212 7.1433L4.85982 6.20933C5.61966 5.0577 6.85045 4.4245 8.33451 4.4245H8.36617C10.8436 4.44033 12.3197 5.98771 12.4701 8.68673L12.4622 8.69465H12.4662ZM6.29244 11.4174C6.34389 12.4107 7.41637 12.8738 8.45324 12.8144C9.46636 12.759 10.614 12.3633 10.808 9.91752C10.2856 9.80275 9.70777 9.74339 9.0904 9.74339C8.90044 9.74339 8.71048 9.74734 8.52052 9.75922C6.82275 9.8542 6.25682 10.6774 6.2964 11.4135L6.29244 11.4174Z" fill="#555555"/>
</svg>