<svg width="24" height="17" viewBox="0 0 24 17" fill="none" xmlns="http://www.w3.org/2000/svg">
<path id="Vector" d="M19.2012 0.692233C21.5365 2.5886 23.0299 5.48892 23.0299 8.73469C23.0299 11.9805 21.5365 14.8772 19.2012 16.7772C18.8305 17.0794 18.2872 17.0218 17.9849 16.6512C17.6826 16.2806 17.7402 15.7372 18.1108 15.4349C20.0612 13.8516 21.3026 11.4407 21.3026 8.73469C21.3026 6.02868 20.0612 3.61775 18.1108 2.03084C17.7402 1.72858 17.6862 1.18522 17.9849 0.814579C18.2836 0.443942 18.8305 0.389966 19.2012 0.688634V0.692233ZM17.0241 3.37305C18.5786 4.6397 19.5754 6.57205 19.5754 8.73469C19.5754 10.8973 18.5786 12.8297 17.0241 14.0963C16.6535 14.3986 16.1101 14.341 15.8078 13.9704C15.5056 13.5998 15.5632 13.0564 15.9338 12.7541C17.1033 11.8041 17.8481 10.3576 17.8481 8.73469C17.8481 7.11181 17.1033 5.66524 15.9338 4.71166C15.5632 4.4094 15.5092 3.86604 15.8078 3.4954C16.1065 3.12476 16.6535 3.07079 17.0241 3.36945V3.37305ZM14.8471 6.05387C15.6207 6.68719 16.1209 7.65157 16.1209 8.73469C16.1209 9.81782 15.6207 10.7822 14.8471 11.4155C14.4764 11.7178 13.9331 11.6602 13.6308 11.2896C13.3285 10.9189 13.3861 10.3756 13.7567 10.0733C14.1454 9.75665 14.3937 9.27446 14.3937 8.73469C14.3937 8.19493 14.1454 7.71274 13.7567 7.39248C13.3861 7.09022 13.3321 6.54686 13.6308 6.17622C13.9295 5.80558 14.4764 5.75161 14.8471 6.05027V6.05387ZM10.8348 0.774996C11.2487 0.962114 11.5149 1.37233 11.5149 1.82573V15.6437C11.5149 16.0971 11.2487 16.5073 10.8348 16.6944C10.421 16.8815 9.93523 16.8059 9.59698 16.5037L4.74271 12.1892H2.30299C1.03275 12.1892 0 11.1564 0 9.88619V7.5832C0 6.31296 1.03275 5.28021 2.30299 5.28021H4.74271L9.59698 0.965712C9.93523 0.663445 10.421 0.591477 10.8348 0.774996Z" fill="#555555"/>
</svg>
