<svg width="35" height="35" viewBox="0 0 35 35" fill="none" xmlns="http://www.w3.org/2000/svg">
<g id="Group 2297">
<circle id="Ellipse 70" cx="17.5" cy="17.5" r="17" stroke="#555555"/>
<path id="Vector" d="M17.1393 8C17.6463 8 18.1141 8.26779 18.3712 8.70697L26.0836 21.8466C26.3442 22.2894 26.3442 22.8357 26.0907 23.2784C25.8372 23.7212 25.3623 23.9961 24.8517 23.9961H9.4269C8.91632 23.9961 8.44143 23.7212 8.18792 23.2784C7.93441 22.8357 7.93798 22.2858 8.19506 21.8466L15.9075 8.70697C16.1645 8.26779 16.6323 8 17.1393 8ZM17.1393 12.5703C16.6644 12.5703 16.2824 12.9524 16.2824 13.4272V17.4263C16.2824 17.9012 16.6644 18.2832 17.1393 18.2832C17.6142 18.2832 17.9962 17.9012 17.9962 17.4263V13.4272C17.9962 12.9524 17.6142 12.5703 17.1393 12.5703ZM18.2819 20.5684C18.2819 20.2653 18.1615 19.9747 17.9472 19.7604C17.733 19.5462 17.4423 19.4258 17.1393 19.4258C16.8363 19.4258 16.5457 19.5462 16.3314 19.7604C16.1171 19.9747 15.9967 20.2653 15.9967 20.5684C15.9967 20.8714 16.1171 21.162 16.3314 21.3763C16.5457 21.5906 16.8363 21.7109 17.1393 21.7109C17.4423 21.7109 17.733 21.5906 17.9472 21.3763C18.1615 21.162 18.2819 20.8714 18.2819 20.5684Z" fill="#555555"/>
</g>
</svg>
